<svg width="18" height="17" viewBox="0 0 18 17" fill="none" xmlns="http://www.w3.org/2000/svg">
<path d="M0.666668 5.66663V9.00079H1.5V14H0.666668V16.5H14L16.5 16.5008V16.5H17.3333V14H16.5V9.00079H17.3333V5.66663L9 0.666626L0.666668 5.66663ZM4 14V9.00079H5.66667V14H4ZM8.16667 14V9.00079H9.83333V14H8.16667ZM14 14H12.3333V9.00079H14V14ZM10.6667 5.66663C10.6666 5.88555 10.6234 6.10232 10.5396 6.30456C10.4558 6.5068 10.3329 6.69055 10.1781 6.84531C10.0233 7.00007 9.83945 7.12283 9.63717 7.20655C9.43488 7.29028 9.21809 7.33335 8.99917 7.33329C8.78024 7.33324 8.56347 7.29006 8.36123 7.20623C8.159 7.1224 7.97525 6.99956 7.82048 6.84472C7.66572 6.68988 7.54297 6.50607 7.45924 6.30379C7.37551 6.10151 7.33245 5.88472 7.3325 5.66579C7.33261 5.22365 7.50836 4.79967 7.82107 4.48711C8.13379 4.17455 8.55786 3.99902 9 3.99913C9.44214 3.99924 9.86613 4.17498 10.1787 4.4877C10.4912 4.80042 10.6668 5.22449 10.6667 5.66663Z" fill="white"/>
</svg>
